<?xml version="1.0" standalone="no"?>
<!DOCTYPE svg PUBLIC "-//W3C//DTD SVG 20010904//EN"
 "http://www.w3.org/TR/2001/REC-SVG-20010904/DTD/svg10.dtd">
<svg version="1.0" xmlns="http://www.w3.org/2000/svg"
 width="200.000000pt" height="200.000000pt" viewBox="0 0 200.000000 200.000000"
 preserveAspectRatio="xMidYMid meet">
<metadata>
Created by potrace 1.11, written by Peter Selinger 2001-2013
</metadata>
<g transform="translate(0.000000,200.000000) scale(0.100000,-0.100000)"
fill="#000000" stroke="none">
<path d="M1224 1976 c-3 -7 -3 -26 -1 -41 8 -60 -24 -196 -66 -282 l-20 -42
-46 39 c-93 78 -215 123 -339 123 -94 1 -140 -6 -212 -31 -217 -76 -384 -265
-476 -539 -33 -97 -39 -141 -39 -268 0 -125 13 -208 46 -307 70 -210 188 -368
347 -466 29 -17 58 -32 65 -32 7 0 18 -5 24 -11 10 -10 45 -20 123 -36 48 -10
212 -10 283 0 122 17 293 90 387 166 198 159 317 361 367 621 19 98 -2 284
-39 353 -19 36 2 29 59 -19 32 -27 64 -56 73 -64 31 -31 81 -115 91 -154 5
-23 14 -52 18 -66 4 -14 8 -40 7 -58 -1 -17 2 -32 6 -32 13 0 71 123 89 190
17 63 19 182 4 253 -24 118 -78 220 -155 297 -83 83 -160 120 -295 144 -24 4
-73 22 -97 36 -10 5 -47 15 -82 22 -58 11 -65 15 -60 33 18 71 8 157 -21 177
-16 12 -35 9 -41 -6z m176 -276 l30 -22 -30 -41 c-19 -26 -30 -53 -30 -74 0
-18 -1 -33 -3 -33 -2 0 -21 9 -44 20 -22 10 -51 21 -64 24 -40 7 -56 16 -56
31 0 8 4 15 8 15 4 0 18 25 30 56 l23 56 53 -5 c31 -3 65 -14 83 -27z"/>
</g>
</svg>
